<svg xmlns="http://www.w3.org/2000/svg" width="612" height="496" version="1.1" viewBox="0 0 459 372">
    <g id="surface76">
        <path fill="none" stroke="#000" stroke-linecap="butt" stroke-linejoin="miter" stroke-miterlimit="10" stroke-opacity="1" stroke-width="1.5" d="M5.548 14.303c-1.072-5.51 1.515-7.84 7.762-6.988m-7.088 4.682c-1.98-4.778-.491-7.26 4.46-7.447m.682-.483c135.859-2.022 270.771-2.168 389.842-1.178M9.8 3.835C160.485 2 312.24.968 401.145 3.533m-.16.858c4.563.745 6.905 2.898 7.025 6.458m-8.748-7.958c6.372 1.938 9.178 5.517 8.413 10.744m1.096-2.051c2.359 64.438 4.28 129.768-.161 323.549m-1.975-321.168c3.094 63.077 3.281 128.464 1.605 321.185m.176.337c-.229 4.921-3.331 7.153-9.313 6.703m6.612-6.713c2.502 3.25.902 5.907-4.793 7.978m-1.404-1.479c-105.881 1.933-211.057-.07-387.69-.197m389.038 2.168c-134.926-.87-268.898-1.324-390.887-1.274m1.986 1.372c-5.256-1.02-8.535-3.941-9.829-8.763m6.993 8.414c-4.612 1.107-6.182-.82-4.708-5.79m1.485-.925C1.268 233.291 3.023 128.739 2.71 14.639m.785 322.745c2.783-66.479 3.09-135.042 2.04-323.014"/>
        <path fill="#ef5ba1" fill-opacity="1" fill-rule="nonzero" stroke="none" d="M22.5 40h234v96h-234zm0 0" transform="scale(.75)"/>
        <path fill="none" stroke="#000" stroke-linecap="butt" stroke-linejoin="miter" stroke-miterlimit="10" stroke-opacity="1" stroke-width="1.5" d="M16.433 29.628c67.435 2.136 135.448 2.186 176.85.66m-175.341.64c51.527-2.77 105.037-1.51 175.183-1.368m-1.271-.078c3.805 26.34 2.64 54.723.606 74.077m.519-72.387c.544 15.879.779 33.056-.765 71.487m1.21-2.56c-58.116 1.142-115.717 2.141-173.903.843m172.845 2.266c-58.207-.332-115.558-.52-175.597-.188m-.48 1.08c3.876-21.468 1.101-38.475 1.632-74.806m.085 72.305c1.18-26.475.02-52.688-.879-71.825"/>
        <path fill="#f99c41" fill-opacity="1" fill-rule="nonzero" stroke="none" d="M292.5 40h234v96h-234zm0 0" transform="scale(.75)"/>
        <path fill="none" stroke="#000" stroke-linecap="butt" stroke-linejoin="miter" stroke-miterlimit="10" stroke-opacity="1" stroke-width="1.5" d="M216.343 30.704c62.364-3.103 127.245-2.125 176.417-.306m-175.005.056c44.883 2.801 91.131 3.437 175.672.302m-1.878 1.635c-.295 24.416.262 48.755-.116 71.923m2.68-72.275c-.556 21.61-1.605 46.913-1.328 71.853m1.255-.626c-64.117 2.141-124.342.741-175.117 1.76m173.561-2.247c-37.342 1.105-76.327-.295-175.347 1.017m-.358.27c.923-16.545 2.186-30.253.179-71.693m.507 70.808c-1.157-23.291.551-45.695-.302-72.502"/>
        <path fill="#fff" fill-opacity="1" fill-rule="nonzero" stroke="none" d="M112.5 168h315v96h-315zm0 0" transform="scale(.75)"/>
        <path fill="none" stroke="#000" stroke-linecap="butt" stroke-linejoin="miter" stroke-miterlimit="10" stroke-opacity="1" stroke-width="1.5" d="M82.38 123.944c87.996.934 175.128-.259 235.608.175m-234.243.556c92.983 1.468 185.69 3.265 235.082 1.024m1.194-1.533c-.48 18.43-2.267 33.77-2.36 73.682m1.517-73.316c-1.195 31.517-1.301 59.036-.677 72.091m1.31.484c-50.66 1.183-99.158-2.122-235.752.084m236.182.583c-87.838.827-174.03 1.134-237.433-.844m1.9-1.25c.11-17.35-1.039-38.134.016-70.468m-1.673 71.223c1.207-24.304.867-48.384-.718-70.857"/>
        <path fill="#27bdce" fill-opacity="1" fill-rule="nonzero" stroke="none" d="M22.5 296h234v96h-234zm0 0" transform="scale(.75)"/>
        <path fill="none" stroke="#000" stroke-linecap="butt" stroke-linejoin="miter" stroke-miterlimit="10" stroke-opacity="1" stroke-width="1.5" d="M16.506 223.775c44.074-.157 86.074-3.416 178.242-.726M19.137 221.65c54.323-1.657 107.326-2.194 173.968-.14m-.806-.704c.68 16.577-.203 38.292-.457 75.452m2.97-74.13c-1.72 29.361-1.14 57.395-1.997 73.29m2.92.327c-60.84-2.95-118.93-2.293-178.792.747m176.932-1.965c-46.254.597-92.54.105-175.986.398m1.44-1.597c.142-14.92-.907-30.284.854-69.65m-2.69 70.957c1.457-29.405 1.395-57.662 1.667-72.93"/>
        <path fill="#00aa5b" fill-opacity="1" fill-rule="nonzero" stroke="none" d="M292.5 296h234v96h-234zm0 0" transform="scale(.75)"/>
        <path fill="none" stroke="#000" stroke-linecap="butt" stroke-linejoin="miter" stroke-miterlimit="10" stroke-opacity="1" stroke-width="1.5" d="M221.396 221.195c63.663.09 129.065-.375 173.877-.048m-174.05-.86c55.87-3.077 115.24-4.786 174.912.292m-.689-.351c-.723 25.561-.726 47.012-.483 74.428m-.07-73.905c1.233 20.234.439 37.908.782 72.845m-1.07-1.949c-60.653 3.176-121.467 3.818-173.882 3.516m174.591-1.764c-55.257.059-109.787-.032-175.06.194m-1.324-2.195c1.497-13.743 2.783-31.532 1.204-71.502m.369 72.915c.58-21.897.419-44.887.604-71.865"/>
    </g>
    <defs xmlns="http://www.w3.org/2000/svg">
        <filter id="dsFilterNoBlur" width="150%" height="150%">
            <feOffset dx="3" dy="3" in="SourceGraphic" result="offOut"/>
            <feColorMatrix in="offOut" result="matrixOut" type="matrix" values="0.2 0 0 0 0 0 0.2 0 0 0 0 0 0.2 0 0 0 0 0 1 0"/>
            <feBlend in="SourceGraphic" in2="matrixOut" mode="normal"/>
        </filter>
        <filter id="dsFilter" width="150%" height="150%">
            <feOffset dx="3" dy="3" in="SourceGraphic" result="offOut"/>
            <feColorMatrix in="offOut" result="matrixOut" type="matrix" values="0.2 0 0 0 0 0 0.2 0 0 0 0 0 0.2 0 0 0 0 0 1 0"/>
            <feGaussianBlur in="matrixOut" result="blurOut" stdDeviation="3"/>
            <feBlend in="SourceGraphic" in2="blurOut" mode="normal"/>
        </filter>
        <marker id="iPointer-1hxi3tzj2zu" fill="#000" markerHeight="7" markerUnits="strokeWidth" markerWidth="8" orient="auto" refX="5" refY="5" viewBox="0 0 10 10">
            <path d="M10 0v10L0 5z"/>
        </marker>
        <marker id="Pointer-1hxi3tzj2zu" fill="#000" markerHeight="7" markerUnits="strokeWidth" markerWidth="8" orient="auto" refX="5" refY="5" viewBox="0 0 10 10">
            <path d="M0 0l10 5-10 5z"/>
        </marker>
    </defs>
    <defs>
        <style type="text/css">
            @font-face{font-family:&quot;xkcd Script&quot;;src:url(./xkcd-script.ttf)}
        </style>
    </defs>
    ??
    <text id="text7" x="73.575" y="321.6" fill="#000" stroke="none" font-family="xkcd Script" font-size="15">
        Cloud Native Computing Foundation (CNCF)
    </text>
    <text id="text1" x="60.075" y="69.6" fill="#fff" stroke="none" font-family="xkcd Script" font-size="15">
        Microsoft
    </text>
    <text id="text0" x="276.075" y="57.6" fill="#fff" stroke="none" font-family="xkcd Script" font-size="15">
        IBM
    </text>
    <text id="text2" x="276.075" y="69.6" fill="#fff" stroke="none" font-family="xkcd Script" font-size="15">
        Red Hat
    </text>
    <text id="text3" x="276.075" y="81.6" fill="#fff" stroke="none" font-family="xkcd Script" font-size="15">
        CoreOS
    </text>
    <text id="text4" x="181.575" y="165.6" fill="#000" stroke="none" font-family="xkcd Script" font-size="15">
        Google
    </text>
    <text id="text5" x="73.575" y="261.6" fill="#fff" stroke="none" font-family="xkcd Script" font-size="15">
        VMware
    </text>
    <text id="text6" x="276.075" y="261.6" fill="#fff" stroke="none" font-family="xkcd Script" font-size="15">
        Alibaba
    </text>
</svg>
