<svg xmlns="http://www.w3.org/2000/svg" width="802" height="416" version="1.1">
    <path fill="#ef5ba1" d="M6.093316724512261 53.395791411667595 L636.5406713712676 53.53964502605376 L637.08538850002 141.00859741358 L192.1891141920205 138.34569993796248 L132.74546566276513 165.35096877573596 L128.6146030146716 136.62002298401785 L2.7106466209326303 137.00407681281067 L5.775712982661207 52.31729007959311"/>
    <path fill="none" stroke="#000" stroke-width="2" d="M3.015554322092794 53.70946712981167 M5.52161571480603 52.97280720892537 C179.31851049094078 51.12286381517953, 354.54599807397864 51.217600231637995, 633.8833269452039 51.858412038865495 M4.5985899572574995 52.53733013285615 C150.9079476160331 50.44391721989256, 296.9478858481844 50.919926011558374, 634.4273896225217 52.3000613211852 M632.2493705585046 52.109761365172744 C637.5184441350657 77.3225212781952, 637.0581327778559 97.42872729394838, 637.0550171623705 137.94063434955936 M634.1137495783885 53.650883806726775 C632.7972793185393 83.84647910091297, 633.6510912289134 112.26460558302497, 635.0071801215937 139.12379255607812 M633.3123081641818 140.0143178259779 C545.7899929906954 141.20013009726742, 458.0805407753694 141.21659205998768, 194.38517820351908 138.08552034502029 M633.8360687100112 139.4858014398848 C500.607643426693 141.33038474477874, 366.8161775442777 140.2790767895765, 193.30557488390696 139.04399432974287 M191.96202989070736 139.69838475220894 C170.73666526779567 146.56752292441382, 149.98346873901033 156.66985599787617, 131.7776936372 170.37258057404105 M193.25233865704757 138.50668262098856 C169.53526993974813 149.6509777448877, 142.6285911483502 161.24476598085332, 131.58701961761471 168.61508956840552 M128.54617107847588 165.56127945579846 C131.03133235786578 163.47056606144127, 133.35464510069494 154.5841877561074, 133.0883788552397 139.90839969398365 M129.88380291134163 167.80009066124111 C130.61217702669302 158.45575849412148, 131.1681464527547 145.79439112757797, 130.96260711801733 137.90940565423307 M129.10626064750105 138.1597155685413 C99.59568167178513 137.33800805319154, 64.6502822933642 140.21472155801135, 5.630273718462559 139.94439259645367 M130.69087158992315 138.53327592205622 C91.14451881386304 138.36377157668966, 53.34630978845561 138.5197083337366, 5.332553465246747 139.43331070033273 M2.667875354204898 140.55357027621503 C6.454905925750744 111.31929634336556, 3.778716110533741 87.36839179103698, 7.134020518468605 53.30980187245295 M3.1452343445995212 138.47942001907685 C2.855969086532161 119.70315779320157, 3.125650343356494 98.23990296730551, 4.182132831062336 52.484665537912406 M4.5 52.8 C4.5 52.8, 4.5 52.8, 4.5 52.8 M4.5 52.8 C4.5 52.8, 4.5 52.8, 4.5 52.8"/>
    <path fill="#6a2469" d="M110.82953327340074 232.94546006431773 L743.6001190963565 231.7864316412757 L740.9903242047251 330.6964149883235 L615.9751719882493 329.8656906732373 L619.233283195972 361.36598240311434 L551.7264339063025 330.1974290342754 L111.12451723430277 325.86049949847074 L113.6419955301346 230.47604361196574"/>
    <path fill="none" stroke="#000" stroke-width="2" d="M115.03810603195743 234.61679721724832 M112.75985700236036 231.51921021606685 C254.31418123604234 232.10596772942492, 394.78434846743824 233.52407786324247, 741.8625177924841 233.09563591819796 M112.33673359070715 231.77438744023792 C289.55220288823 230.52256711594944, 467.84329396113594 230.6029541390329, 742.3100648383764 231.66194645241808 M745.1545722187511 230.82012255451355 C741.4590697097831 256.6929753285607, 740.7558413628916 281.8348498369327, 743.4950318681967 328.38332931954284 M743.3741923674281 232.80463839061449 C742.5603870406951 252.01887307092036, 742.7404376820863 273.08531941539593, 742.7544129207469 326.96006715173934 M741.234125254587 327.2017881435012 C696.096455844791 329.11733071362954, 655.8969084793237 326.1891226096193, 614.4727964764782 330.6746860228686 M742.4726052872029 327.3824105448119 C695.7721405366055 329.200418829533, 650.6514848323262 327.78657013271464, 616.6054360784772 328.61964555096114 M617.1364130989707 328.59524401553773 C617.985551552109 339.7654293874322, 613.9456287427803 348.87090835140043, 616.1424450524377 358.3314885855912 M616.0316533012968 327.38852539819345 C616.0109592087675 336.5435717431014, 615.5748359224849 342.5035129546377, 617.1229187384466 359.4456454529301 M617.018457899012 361.80749788443245 C594.7146186757999 350.2326635185518, 574.712536262178 338.9418251009164, 551.8430869964293 327.6109349088962 M617.4333072887235 360.4513956575644 C598.3284509522143 350.4540687645515, 580.0429949471679 341.65949182977386, 554.5142940977029 326.8412910788211 M553.0540754022621 328.0822688684621 C424.8310132601296 325.4103989598821, 297.31715929649334 325.3853199771217, 113.84310977326201 327.3404877170157 M553.5362233443894 327.4679240976822 C403.6810404224056 327.0542297304453, 254.68410812235237 326.70647763384045, 111.90149548225182 327.5495884701952 M113.68258470706932 327.9435409087913 C110.8402227456561 294.7558572481794, 109.84763853633446 262.67576129897935, 115.09509884437429 229.92809058621134 M111.72886234792604 329.21902396638217 C111.75361137936993 295.89509405010614, 111.58977937719278 262.5629919374088, 111.28433440945591 230.8714747810198 M112.5 232 C112.5 232, 112.5 232, 112.5 232 M112.5 232 C112.5 232, 112.5 232, 112.5 232"/>
    <defs xmlns="http://www.w3.org/2000/svg">
        <marker id="iPointer-1ia80hc1gcjj" fill="#000" markerHeight="7" markerUnits="strokeWidth" markerWidth="8" orient="auto" refX="5" refY="5" viewBox="0 0 10 10">
            <path d="M 10 0 L 10 10 L 0 5 z"/>
        </marker>
        <marker id="Pointer-1ia80hc1gcjj" fill="#000" markerHeight="7" markerUnits="strokeWidth" markerWidth="8" orient="auto" refX="5" refY="5" viewBox="0 0 10 10">
            <path d="M 0 0 L 10 5 L 0 10 z"/>
        </marker>
        <filter id="dsFilterNoBlur" width="150%" height="150%">
            <feOffset dx="3" dy="3" in="SourceGraphic" result="offOut"/>
            <feColorMatrix in="offOut" result="matrixOut" type="matrix" values="0.2 0 0 0 0 0 0.2 0 0 0 0 0 0.2 0 0 0 0 0 1 0"/>
            <feBlend in="SourceGraphic" in2="matrixOut" mode="normal"/>
        </filter>
        <filter id="dsFilter" width="150%" height="150%">
            <feOffset dx="3" dy="3" in="SourceGraphic" result="offOut"/>
            <feColorMatrix in="offOut" result="matrixOut" type="matrix" values="0.2 0 0 0 0 0 0.2 0 0 0 0 0 0.2 0 0 0 0 0 1 0"/>
            <feGaussianBlur in="matrixOut" result="blurOut" stdDeviation="3"/>
            <feBlend in="SourceGraphic" in2="blurOut" mode="normal"/>
        </filter>
    </defs>
    ??
    <text id="text0" x="26.1" y="92.8" fill="#fff" stroke="none" font-family="xkcd Script" font-size="120%">
        Can I trust custom resources to create and manage the lifecycle
    </text>
    <text id="text1" x="26.1" y="108.8" fill="#fff" stroke="none" font-family="xkcd Script" font-size="120%">
        of objects native to the platform?
    </text>
    <text id="text2" x="134.1" y="268.8" fill="#fff" stroke="none" font-family="xkcd Script" font-size="120%">
        Yes, this is something resources like PersistentVolumeClaim and
    </text>
    <text id="text3" x="134.1" y="284.8" fill="#fff" stroke="none" font-family="xkcd Script" font-size="120%">
        Service have done for a long time, dynamically creating storage
    </text>
    <text id="text4" x="134.1" y="300.8" fill="#fff" stroke="none" font-family="xkcd Script" font-size="120%">
        volumes and load balancers respectively.
    </text>
</svg>
