<svg xmlns="http://www.w3.org/2000/svg" width="613" height="384" version="1.1">
    <path fill="#ef5ba1" d="M6.093316724512261 8.595791411667596 L249.54067137126768 8.739645026053768 L250.08538850002006 105.80859741357999 L3.1891141920204973 103.14569993796249 L6.7454656627651275 5.350968775735964"/>
    <path fill="none" stroke="#000" stroke-width="2" d="M2.614603014671593 5.4200229840178515 M4.1001706005911025 6.770431269876377 C62.624281967578604 6.183791724325937, 121.19710192367506 7.236227331239663, 249.61551482789744 8.357841219111044 M3.6807576189265783 7.361510902544358 C82.48322292819968 4.777486017869613, 161.44031475410563 6.162619225443913, 247.7041555483508 7.4560753219324045 M247.1752968645007 7.636948112608616 C243.70202800088842 40.29069356209366, 248.20082699529115 72.11657746223645, 245.2493705585046 103.30976136517275 M246.15819976199546 9.277508581185248 C247.2861687235236 44.91769325941932, 246.54916157885015 79.94402384910501, 247.11374957838854 104.85088380672678 M245.21055232368627 104.84019621240854 C183.5324568642384 102.36741787190697, 120.54741313810351 105.60840023965909, 2.525655204362659 105.35367114029762 M248.13940570534297 104.7357325051096 C176.39648723306001 105.43789593846975, 107.49053277087889 106.02384310875574, 3.396322052978467 104.47509847959297 M2.075244398393261 103.21960749363788 C3.0122014943059767 73.19868136774166, 1.7658588795552208 37.4705315840154, 2.9620298907073446 8.498384752208949 M3.3841494406806305 104.6388468186 C6.729365728500212 77.42431236211522, 5.468903478035369 48.88797334078771, 4.252338657047585 7.306682620988568"/>
    <path fill="#f99c41" d="M303.20585921732726 5.399548112865159 L532.9850979214185 5.916223425076533 L537.6740392352294 105.23017913681106 L298.8225925863746 102.59887990280986 L302.8697112336631 6.046171078475891"/>
    <path fill="none" stroke="#000" stroke-width="2" d="M299.06127945579846 8.32957106387039 M303.68278713608447 8.597395445455568 C384.54850651677657 11.738752924055778, 466.24704896500856 8.582421433633455, 535.162831789757 8.798908810048136 M301.89011787792396 6.911638174550579 C386.806409849712 11.304440056626014, 472.2262534688312 9.86012183175626, 535.0613626130772 8.309592723787233 M536.6302737184626 8.74439259645369 C534.5265484908809 38.16381504433885, 534.362198299251 63.88159137418516, 534.1665518441125 103.2416228801092 M536.3325534652467 8.233310700332732 C536.3282484131564 30.644980578902324, 536.6862773014616 52.3771659708133, 536.1767851381076 104.97674726151963 M537.7212768784821 104.42991734648481 C477.09322872041287 107.03406023437928, 423.75790582781303 102.46996336753747, 300.28466576892714 103.19634653302494 M535.2319417264068 103.73407756518503 C446.202029869791 104.34047143518946, 355.6044160811469 103.76502002239434, 301.5523334466977 105.0977077879827 M298.70487570061016 102.08025837548921 C302.08196284494625 72.4079779021543, 303.45647242228955 39.201213620589996, 302.1553884788606 5.201737292551844 M301.5308653975866 105.39149536636796 C301.2726862733725 75.8612564607778, 302.6579791848504 46.67026867787571, 300.74516210236254 9.34820749416176"/>
    <path fill="#fff" d="M156.97517198824926 201.86569067323725 L160.23328319597204 329.36598240311434 L158.2959987256385 335.19948689627057 L166.00232485149027 335.43075679263546 L194.94961271763458 343.60710863057676 L234.52211482101993 352.7511886897545 L274.9674244236812 350.94997791642464 L307.93792355348126 351.95113852647603 L363.89943541995257 347.01484862670196 L389.1709921137692 338.01541002744 L400.95745042842617 329.5853247267911 L403.23908979549486 199.4898931672862 L397.5758634352489 196.4520502410363 L389.80586033634825 189.30167990702483 L361.8404159339516 184.64265161023448 L327.5064983772201 180.04126027175653 L279.9487616918821 174.2775273070722 L248.50126702903998 175.50456283621872 L215.7658431414977 181.8699625279246 L181.32841955473702 184.9471286258273 L160.46383091192368 192.56690943258886 L155.46500092351562 200.99503186819675"/>
    <path fill="none" stroke="#000" stroke-width="2" d="M157.88332931954284 197.66258091897834 M159.10927678122897 200.84841394989525 C155.91401602965271 236.14356347789143, 156.47492527418092 270.37892233192105, 155.4201343034787 329.414216061568 M157.1008940717506 198.8802140609235 C157.95797429392334 230.0822493072148, 156.49387024191822 257.42604381923303, 158.8373430114343 328.9438893273411 M157.5 328 C157.4452105744058 345.2400297036918, 257.8842889653508 359.5244070480281, 342.48593271303724 349.4978196978888 M158.98298544893186 326.6744956565308 C157.40293620268628 344.5698946206518, 261.58122203664857 358.7540890616768, 339.9925029804976 350.20979445803715 M339.75 348.7846096908265 C379.60412113017543 342.2081385190102, 402.36383018457053 336.2168192102336, 401.09524401553773 329.7506387164103 M338.0814885855912 347.3161917409655 C376.26503341914093 343.0910310277735, 399.04947371193697 338.0044306351352, 401.51791396321374 330.8882932841627 M399.3912909058601 328.9785598103641 C401.0502060376432 297.95323011602886, 402.73378994376804 272.5144581548466, 399.62995808798104 201.39209634358048 M400.3054674544481 327.80078736746447 C398.63219858815506 289.2886329364243, 400.9087556119667 249.5518733930763, 399.9021541905762 199.1335373412092 M400.5 200 C402.5285881954058 179.20737354357414, 298.9549829961572 169.07787938146296, 216.49048267823966 178.18262480187414 M398.7892659848716 199.1050636320293 C398.86129416359785 179.50330251143401, 297.5534128358206 173.07763170839038, 218.4398733846907 176.87164485896096 M218.25000000000003 179.21539030917347 C182.49514538163766 182.03974570208905, 157.64539493191478 189.28995502287447, 156.17640957650656 201.0760995828852 M215.96053768217973 181.8703016761371 C177.89511835192496 181.4235124084155, 158.93458784474228 192.52566682945087, 156.02865135861575 201.44795114029014 M157.5 200 C157.5 200, 157.5 200, 157.5 200 M157.5 200 C157.5 200, 157.5 200, 157.5 200"/>
    <path fill="none" stroke="#000" stroke-width="2" d="M157.5 200C154.8151697288136 219.81334731602612 258.7030216799114 231.8611561664195 341.47367998070223 223.54305906175824M160.0168785213791 202.34972682616063C155.93390870551252 219.69874158250417 257.7930709264135 232.19244792433562 342.6211192492336 222.47100435848736M339.75 220.78460969082653C376.597283450837 214.67638147344093 397.93456032503974 210.7775699530323 399.8362941802974 199.21675427445945M337.68945307438554 222.26163106441808C378.50137031029277 219.05534295288675 400.4803972414876 209.51122788836798 403.34162126070623 199.93610442378602M255.5382870677505 55.82487181790362C260.00981903036376 54.19987344718252 268.135531270999 57.63166227185891 275.1527228451442 54.52926688078885M257.23872381146015 55.93015500799207C262.2599343473132 55.90056104183376 264.9580408045466 56.790062363801816 274.8024982861501 56.11891241784433M272.3599383605158 58.071820923471535C279.48598842006527 54.743775029901684 282.81158293912097 54.15666495632375 290.0217366744737 54.74004873714177M273.4583691194316 55.77579181086592C277.92278836245134 55.426357318807774 284.77055276753623 55.011036978974175 293.52943039887344 56.990412624849924"/>
    <path fill="none" stroke="#000" stroke-width="2" d="M273.82930805909854 58.732154993836595 M271.93521551327433 56.33759122466495 C273.4753923944055 91.56035856415475, 276.2996884321693 133.16851368528734, 273.39967458968823 150.09196061528928 M273.4504661785475 55.37676497865541 C274.6564986921184 92.80793229763731, 276.56779922541506 130.86052030198186, 274.8938118955954 151.3007667902697"/>
    <defs xmlns="http://www.w3.org/2000/svg">
        <marker id="iPointer-jh78cdv7k6" fill="#000" markerHeight="7" markerUnits="strokeWidth" markerWidth="8" orient="auto" refX="5" refY="5" viewBox="0 0 10 10">
            <path d="M 10 0 L 10 10 L 0 5 z"/>
        </marker>
        <marker id="Pointer-jh78cdv7k6" fill="#000" markerHeight="7" markerUnits="strokeWidth" markerWidth="8" orient="auto" refX="5" refY="5" viewBox="0 0 10 10">
            <path d="M 0 0 L 10 5 L 0 10 z"/>
        </marker>
        <filter id="dsFilterNoBlur" width="150%" height="150%">
            <feOffset dx="3" dy="3" in="SourceGraphic" result="offOut"/>
            <feColorMatrix in="offOut" result="matrixOut" type="matrix" values="0.2 0 0 0 0 0 0.2 0 0 0 0 0 0.2 0 0 0 0 0 1 0"/>
            <feBlend in="SourceGraphic" in2="matrixOut" mode="normal"/>
        </filter>
        <filter id="dsFilter" width="150%" height="150%">
            <feOffset dx="3" dy="3" in="SourceGraphic" result="offOut"/>
            <feColorMatrix in="offOut" result="matrixOut" type="matrix" values="0.2 0 0 0 0 0 0.2 0 0 0 0 0 0.2 0 0 0 0 0 1 0"/>
            <feGaussianBlur in="matrixOut" result="blurOut" stdDeviation="3"/>
            <feBlend in="SourceGraphic" in2="blurOut" mode="normal"/>
        </filter>
    </defs>
    <g xmlns="http://www.w3.org/2000/svg" id="lines-jh78cdv7k6" fill="none" stroke="#000" stroke-width="2">
        <g id="group694">
            <path id="path694" marker-end="url(#Pointer-jh78cdv7k6)" marker-start="url(#iPointer-jh78cdv7k6)" d="M 256.5 56 L 274.5 56 L 292.5 56"/>
        </g>
        <g id="group742">
            <path id="path742" marker-end="url(#Pointer-jh78cdv7k6)" d="M 274.5 56 L 274.5 152"/>
        </g>
    </g>
    <text id="text0" x="8.1" y="60.8" fill="#fff" stroke="none" font-family="xkcd Script" font-size="120%">
        Custom Resource Definition
    </text>
    <text id="text2" x="26.1" y="76.8" fill="#fff" stroke="none" font-family="xkcd Script" font-size="120%">
        (e.g. &quot;VaultService&quot;)
    </text>
    <text id="text1" x="377.1" y="60.8" fill="#fff" stroke="none" font-family="xkcd Script" font-size="120%">
        Controller
    </text>
    <text id="text3" x="314.1" y="76.8" fill="#fff" stroke="none" font-family="xkcd Script" font-size="120%">
        (backup, upgrade, etc.)
    </text>
    <text id="text4" x="188.1" y="252.8" fill="#000" stroke="none" font-family="xkcd Script" font-size="120%">
        Cluster state (etcd)
    </text>
    <text id="text5" x="197.1" y="268.8" fill="#000" stroke="none" font-family="xkcd Script" font-size="120%">
        PersistentVolumes
    </text>
    <text id="text6" x="233.1" y="284.8" fill="#000" stroke="none" font-family="xkcd Script" font-size="120%">
        ConfigMaps
    </text>
    <text id="text7" x="251.1" y="300.8" fill="#000" stroke="none" font-family="xkcd Script" font-size="120%">
        Secrets
    </text>
</svg>
