<svg class="marks" width="756" height="365" viewBox="0 0 756 365" version="1.1" xmlns="http://www.w3.org/2000/svg" xmlns:xlink="http://www.w3.org/1999/xlink"><g transform="translate(80,10)"><g class="mark-group role-frame root"><g transform="translate(0,0)"><path class="background" d="M0.5,0.5h600v300h-600Z" style="fill: none; stroke: #ddd;"></path><g><g class="mark-group role-axis"><g transform="translate(0.5,300.5)"><path class="background" d="M0,0h0v0h0Z" style="pointer-events: none; fill: none;"></path><g><g class="mark-rule role-axis-grid" style="pointer-events: none;"><line transform="translate(20,-300)" x2="0" y2="300" style="fill: none; stroke: #ddd; stroke-width: 1; opacity: 1;"></line><line transform="translate(60,-300)" x2="0" y2="300" style="fill: none; stroke: #ddd; stroke-width: 1; opacity: 1;"></line><line transform="translate(100,-300)" x2="0" y2="300" style="fill: none; stroke: #ddd; stroke-width: 1; opacity: 1;"></line><line transform="translate(140,-300)" x2="0" y2="300" style="fill: none; stroke: #ddd; stroke-width: 1; opacity: 1;"></line><line transform="translate(180,-300)" x2="0" y2="300" style="fill: none; stroke: #ddd; stroke-width: 1; opacity: 1;"></line><line transform="translate(220,-300)" x2="0" y2="300" style="fill: none; stroke: #ddd; stroke-width: 1; opacity: 1;"></line><line transform="translate(260,-300)" x2="0" y2="300" style="fill: none; stroke: #ddd; stroke-width: 1; opacity: 1;"></line><line transform="translate(300,-300)" x2="0" y2="300" style="fill: none; stroke: #ddd; stroke-width: 1; opacity: 1;"></line><line transform="translate(340,-300)" x2="0" y2="300" style="fill: none; stroke: #ddd; stroke-width: 1; opacity: 1;"></line><line transform="translate(380,-300)" x2="0" y2="300" style="fill: none; stroke: #ddd; stroke-width: 1; opacity: 1;"></line><line transform="translate(420,-300)" x2="0" y2="300" style="fill: none; stroke: #ddd; stroke-width: 1; opacity: 1;"></line><line transform="translate(460,-300)" x2="0" y2="300" style="fill: none; stroke: #ddd; stroke-width: 1; opacity: 1;"></line><line transform="translate(500,-300)" x2="0" y2="300" style="fill: none; stroke: #ddd; stroke-width: 1; opacity: 1;"></line><line transform="translate(540,-300)" x2="0" y2="300" style="fill: none; stroke: #ddd; stroke-width: 1; opacity: 1;"></line><line transform="translate(580,-300)" x2="0" y2="300" style="fill: none; stroke: #ddd; stroke-width: 1; opacity: 1;"></line></g></g></g></g><g class="mark-group role-axis"><g transform="translate(0.5,0.5)"><path class="background" d="M0,0h0v0h0Z" style="pointer-events: none; fill: none;"></path><g><g class="mark-rule role-axis-grid" style="pointer-events: none;"><line transform="translate(0,300)" x2="600" y2="0" style="fill: none; stroke: #ddd; stroke-width: 1; opacity: 1;"></line><line transform="translate(0,254)" x2="600" y2="0" style="fill: none; stroke: #ddd; stroke-width: 1; opacity: 1;"></line><line transform="translate(0,208)" x2="600" y2="0" style="fill: none; stroke: #ddd; stroke-width: 1; opacity: 1;"></line><line transform="translate(0,162)" x2="600" y2="0" style="fill: none; stroke: #ddd; stroke-width: 1; opacity: 1;"></line><line transform="translate(0,115)" x2="600" y2="0" style="fill: none; stroke: #ddd; stroke-width: 1; opacity: 1;"></line><line transform="translate(0,69)" x2="600" y2="0" style="fill: none; stroke: #ddd; stroke-width: 1; opacity: 1;"></line><line transform="translate(0,23)" x2="600" y2="0" style="fill: none; stroke: #ddd; stroke-width: 1; opacity: 1;"></line></g></g></g></g><g class="mark-rect role-mark marks"><path d="M10.000000000211276,297.6923076923077h20v2.307692307692321h-20Z" style="fill: #fe17bf;"></path><path d="M49.97653041294518,297.6923076923077h20v2.307692307692321h-20Z" style="fill: #fe17bf;"></path><path d="M89.95306082567907,295.38461538461536h20v4.615384615384642h-20Z" style="fill: #fe17bf;"></path><path d="M130.0391159792698,286.15384615384613h20v6.923076923076962h-20Z" style="fill: #fe17bf;"></path><path d="M170.0156463920037,279.2307692307692h20v9.230769230769226h-20Z" style="fill: #fe17bf;"></path><path d="M209.99217680473762,246.9230769230769h20v18.461538461538453h-20Z" style="fill: #fe17bf;"></path><path d="M249.9687072174715,226.15384615384613h20v20.769230769230774h-20Z" style="fill: #fe17bf;"></path><path d="M290.0547623710622,205.3846153846154h20v23.076923076923066h-20Z" style="fill: #fe17bf;"></path><path d="M330.0312927837961,182.30769230769232h20v25.38461538461536h-20Z" style="fill: #fe17bf;"></path><path d="M370.00782319653,161.53846153846152h20v25.384615384615387h-20Z" style="fill: #fe17bf;"></path><path d="M409.98435360926396,120h20v36.923076923076906h-20Z" style="fill: #fe17bf;"></path><path d="M450.07040876285464,92.30769230769232h20v36.923076923076906h-20Z" style="fill: #fe17bf;"></path><path d="M490.04693917558853,48.46153846153845h20v39.230769230769226h-20Z" style="fill: #fe17bf;"></path><path d="M530.0234695883224,23.076923076923038h20v46.15384615384619h-20Z" style="fill: #fe17bf;"></path><path d="M570.0000000010564,-4.615384615384585h20v55.38461538461533h-20Z" style="fill: #fe17bf;"></path><path d="M10.000000000211276,300h20v0h-20Z" style="fill: #3364c0;"></path><path d="M49.97653041294518,300h20v0h-20Z" style="fill: #3364c0;"></path><path d="M89.95306082567907,300h20v0h-20Z" style="fill: #3364c0;"></path><path d="M130.0391159792698,300h20v0h-20Z" style="fill: #3364c0;"></path><path d="M170.0156463920037,295.38461538461536h20v0h-20Z" style="fill: #3364c0;"></path><path d="M209.99217680473762,272.3076923076923h20v9.230769230769226h-20Z" style="fill: #3364c0;"></path><path d="M249.9687072174715,253.84615384615384h20v13.84615384615384h-20Z" style="fill: #3364c0;"></path><path d="M290.0547623710622,235.3846153846154h20v18.461538461538453h-20Z" style="fill: #3364c0;"></path><path d="M330.0312927837961,216.9230769230769h20v23.076923076923094h-20Z" style="fill: #3364c0;"></path><path d="M370.00782319653,198.46153846153845h20v27.69230769230768h-20Z" style="fill: #3364c0;"></path><path d="M409.98435360926396,177.69230769230768h20v32.30769230769232h-20Z" style="fill: #3364c0;"></path><path d="M450.07040876285464,156.9230769230769h20v36.923076923076934h-20Z" style="fill: #3364c0;"></path><path d="M490.04693917558853,133.84615384615384h20v41.53846153846152h-20Z" style="fill: #3364c0;"></path><path d="M530.0234695883224,117.69230769230771h20v48.46153846153845h-20Z" style="fill: #3364c0;"></path><path d="M570.0000000010564,101.53846153846155h20v55.38461538461536h-20Z" style="fill: #3364c0;"></path><path d="M10.000000000211276,300h20v0h-20Z" style="fill: #27bdce;"></path><path d="M49.97653041294518,300h20v0h-20Z" style="fill: #27bdce;"></path><path d="M89.95306082567907,300h20v0h-20Z" style="fill: #27bdce;"></path><path d="M130.0391159792698,300h20v0h-20Z" style="fill: #27bdce;"></path><path d="M170.0156463920037,295.38461538461536h20v4.615384615384642h-20Z" style="fill: #27bdce;"></path><path d="M209.99217680473762,281.53846153846155h20v18.461538461538453h-20Z" style="fill: #27bdce;"></path><path d="M249.9687072174715,267.6923076923077h20v32.30769230769232h-20Z" style="fill: #27bdce;"></path><path d="M290.0547623710622,253.84615384615384h20v46.15384615384616h-20Z" style="fill: #27bdce;"></path><path d="M330.0312927837961,240h20v60h-20Z" style="fill: #27bdce;"></path><path d="M370.00782319653,226.15384615384613h20v73.84615384615387h-20Z" style="fill: #27bdce;"></path><path d="M409.98435360926396,210h20v90h-20Z" style="fill: #27bdce;"></path><path d="M450.07040876285464,193.84615384615384h20v106.15384615384616h-20Z" style="fill: #27bdce;"></path><path d="M490.04693917558853,175.38461538461536h20v124.61538461538464h-20Z" style="fill: #27bdce;"></path><path d="M530.0234695883224,166.15384615384616h20v133.84615384615384h-20Z" style="fill: #27bdce;"></path><path d="M570.0000000010564,156.9230769230769h20v143.0769230769231h-20Z" style="fill: #27bdce;"></path><path d="M89.95306082567907,300h20v0h-20Z" style="fill: #00aa5b;"></path><path d="M130.0391159792698,293.0769230769231h20v6.923076923076906h-20Z" style="fill: #00aa5b;"></path><path d="M170.0156463920037,288.46153846153845h20v6.923076923076906h-20Z" style="fill: #00aa5b;"></path><path d="M209.99217680473762,265.38461538461536h20v6.923076923076962h-20Z" style="fill: #00aa5b;"></path><path d="M249.9687072174715,246.9230769230769h20v6.923076923076934h-20Z" style="fill: #00aa5b;"></path><path d="M290.0547623710622,228.46153846153845h20v6.923076923076934h-20Z" style="fill: #00aa5b;"></path><path d="M330.0312927837961,207.69230769230768h20v9.230769230769226h-20Z" style="fill: #00aa5b;"></path><path d="M370.00782319653,186.9230769230769h20v11.538461538461547h-20Z" style="fill: #00aa5b;"></path><path d="M409.98435360926396,156.9230769230769h20v20.769230769230774h-20Z" style="fill: #00aa5b;"></path><path d="M450.07040876285464,129.23076923076923h20v27.69230769230768h-20Z" style="fill: #00aa5b;"></path><path d="M490.04693917558853,87.69230769230768h20v46.15384615384616h-20Z" style="fill: #00aa5b;"></path><path d="M530.0234695883224,69.23076923076923h20v48.46153846153848h-20Z" style="fill: #00aa5b;"></path><path d="M570.0000000010564,50.769230769230745h20v50.7692307692308h-20Z" style="fill: #00aa5b;"></path></g><g class="mark-group role-legend"><g transform="translate(618,0)"><path class="background" d="M0,0h53v70h-53Z" style="pointer-events: none; fill: none;"></path><g><g class="mark-group role-legend-entry"><g transform="translate(0,16)"><path class="background" d="M0,0h0v0h0Z" style="pointer-events: none; fill: none;"></path><g><g class="mark-group role-scope"><g transform="translate(0,0)"><path class="background" d="M0,0h49v12h-49Z" style="pointer-events: none; fill: none; opacity: 1;"></path><g><g class="mark-symbol role-legend-symbol" style="pointer-events: none;"><path transform="translate(6,6)" d="M-5,-5h10v10h-10Z" style="fill: #fe17bf; stroke-width: 1.5; opacity: 1;"></path></g><g class="mark-text role-legend-label" style="pointer-events: none;"><text text-anchor="start" transform="translate(16,9)" style="font-family: sans-serif; font-size: 10px; fill: #000; opacity: 1;">AMZN</text></g></g></g><g transform="translate(0,14)"><path class="background" d="M0,0h49v12h-49Z" style="pointer-events: none; fill: none; opacity: 1;"></path><g><g class="mark-symbol role-legend-symbol" style="pointer-events: none;"><path transform="translate(6,6)" d="M-5,-5h10v10h-10Z" style="fill: #3364c0; stroke-width: 1.5; opacity: 1;"></path></g><g class="mark-text role-legend-label" style="pointer-events: none;"><text text-anchor="start" transform="translate(16,9)" style="font-family: sans-serif; font-size: 10px; fill: #000; opacity: 1;">GOOG</text></g></g></g><g transform="translate(0,28)"><path class="background" d="M0,0h49v12h-49Z" style="pointer-events: none; fill: none; opacity: 1;"></path><g><g class="mark-symbol role-legend-symbol" style="pointer-events: none;"><path transform="translate(6,6)" d="M-5,-5h10v10h-10Z" style="fill: #27bdce; stroke-width: 1.5; opacity: 1;"></path></g><g class="mark-text role-legend-label" style="pointer-events: none;"><text text-anchor="start" transform="translate(16,9)" style="font-family: sans-serif; font-size: 10px; fill: #000; opacity: 1;">MSFT</text></g></g></g><g transform="translate(0,42)"><path class="background" d="M0,0h49v12h-49Z" style="pointer-events: none; fill: none; opacity: 1;"></path><g><g class="mark-symbol role-legend-symbol" style="pointer-events: none;"><path transform="translate(6,6)" d="M-5,-5h10v10h-10Z" style="fill: #00aa5b; stroke-width: 1.5; opacity: 1;"></path></g><g class="mark-text role-legend-label" style="pointer-events: none;"><text text-anchor="start" transform="translate(16,9)" style="font-family: sans-serif; font-size: 10px; fill: #000; opacity: 1;">BABA</text></g></g></g></g></g></g></g><g class="mark-text role-legend-title" style="pointer-events: none;"><text text-anchor="start" transform="translate(0,9)" style="font-family: sans-serif; font-size: 11px; font-weight: bold; fill: #000; opacity: 1;">symbol</text></g></g></g></g><g class="mark-group role-axis"><g transform="translate(0.5,300.5)"><path class="background" d="M0,0h0v0h0Z" style="pointer-events: none; fill: none;"></path><g><g class="mark-rule role-axis-tick" style="pointer-events: none;"><line transform="translate(20,0)" x2="0" y2="5" style="fill: none; stroke: #888; stroke-width: 1; opacity: 1;"></line><line transform="translate(60,0)" x2="0" y2="5" style="fill: none; stroke: #888; stroke-width: 1; opacity: 1;"></line><line transform="translate(100,0)" x2="0" y2="5" style="fill: none; stroke: #888; stroke-width: 1; opacity: 1;"></line><line transform="translate(140,0)" x2="0" y2="5" style="fill: none; stroke: #888; stroke-width: 1; opacity: 1;"></line><line transform="translate(180,0)" x2="0" y2="5" style="fill: none; stroke: #888; stroke-width: 1; opacity: 1;"></line><line transform="translate(220,0)" x2="0" y2="5" style="fill: none; stroke: #888; stroke-width: 1; opacity: 1;"></line><line transform="translate(260,0)" x2="0" y2="5" style="fill: none; stroke: #888; stroke-width: 1; opacity: 1;"></line><line transform="translate(300,0)" x2="0" y2="5" style="fill: none; stroke: #888; stroke-width: 1; opacity: 1;"></line><line transform="translate(340,0)" x2="0" y2="5" style="fill: none; stroke: #888; stroke-width: 1; opacity: 1;"></line><line transform="translate(380,0)" x2="0" y2="5" style="fill: none; stroke: #888; stroke-width: 1; opacity: 1;"></line><line transform="translate(420,0)" x2="0" y2="5" style="fill: none; stroke: #888; stroke-width: 1; opacity: 1;"></line><line transform="translate(460,0)" x2="0" y2="5" style="fill: none; stroke: #888; stroke-width: 1; opacity: 1;"></line><line transform="translate(500,0)" x2="0" y2="5" style="fill: none; stroke: #888; stroke-width: 1; opacity: 1;"></line><line transform="translate(540,0)" x2="0" y2="5" style="fill: none; stroke: #888; stroke-width: 1; opacity: 1;"></line><line transform="translate(580,0)" x2="0" y2="5" style="fill: none; stroke: #888; stroke-width: 1; opacity: 1;"></line></g><g class="mark-text role-axis-label" style="pointer-events: none;"><text text-anchor="middle" transform="translate(20.000000000211276,21)" style="font-family: sans-serif; font-size: 18px; fill: #000; opacity: 1;">2006</text><text text-anchor="middle" transform="translate(59.97653041294518,21)" style="font-family: sans-serif; font-size: 18px; fill: #000; opacity: 0;">2007</text><text text-anchor="middle" transform="translate(99.95306082567907,21)" style="font-family: sans-serif; font-size: 18px; fill: #000; opacity: 1;">2008</text><text text-anchor="middle" transform="translate(140.0391159792698,21)" style="font-family: sans-serif; font-size: 18px; fill: #000; opacity: 0;">2009</text><text text-anchor="middle" transform="translate(180.0156463920037,21)" style="font-family: sans-serif; font-size: 18px; fill: #000; opacity: 1;">2010</text><text text-anchor="middle" transform="translate(219.99217680473762,21)" style="font-family: sans-serif; font-size: 18px; fill: #000; opacity: 0;">2011</text><text text-anchor="middle" transform="translate(259.9687072174715,21)" style="font-family: sans-serif; font-size: 18px; fill: #000; opacity: 1;">2012</text><text text-anchor="middle" transform="translate(300.0547623710622,21)" style="font-family: sans-serif; font-size: 18px; fill: #000; opacity: 0;">2013</text><text text-anchor="middle" transform="translate(340.0312927837961,21)" style="font-family: sans-serif; font-size: 18px; fill: #000; opacity: 1;">2014</text><text text-anchor="middle" transform="translate(380.00782319653,21)" style="font-family: sans-serif; font-size: 18px; fill: #000; opacity: 0;">2015</text><text text-anchor="middle" transform="translate(419.98435360926396,21)" style="font-family: sans-serif; font-size: 18px; fill: #000; opacity: 1;">2016</text><text text-anchor="middle" transform="translate(460.07040876285464,21)" style="font-family: sans-serif; font-size: 18px; fill: #000; opacity: 0;">2017</text><text text-anchor="middle" transform="translate(500.04693917558853,21)" style="font-family: sans-serif; font-size: 18px; fill: #000; opacity: 1;">2018</text><text text-anchor="middle" transform="translate(540.0234695883224,21)" style="font-family: sans-serif; font-size: 18px; fill: #000; opacity: 0;">2019</text><text text-anchor="middle" transform="translate(580.0000000010564,21)" style="font-family: sans-serif; font-size: 18px; fill: #000; opacity: 1;">2020</text></g><g class="mark-rule role-axis-domain" style="pointer-events: none;"><line transform="translate(0,0)" x2="600" y2="0" style="fill: none; stroke: #888; stroke-width: 1; opacity: 1;"></line></g><g class="mark-text role-axis-title" style="pointer-events: none;"><text text-anchor="middle" transform="translate(300,44)" style="font-family: sans-serif; font-size: 18px; font-weight: bold; fill: #000; opacity: 1;">date (year)</text></g></g></g></g><g class="mark-group role-axis"><g transform="translate(0.5,0.5)"><path class="background" d="M0,0h0v0h0Z" style="pointer-events: none; fill: none;"></path><g><g class="mark-rule role-axis-tick" style="pointer-events: none;"><line transform="translate(0,300)" x2="-5" y2="0" style="fill: none; stroke: #888; stroke-width: 1; opacity: 1;"></line><line transform="translate(0,254)" x2="-5" y2="0" style="fill: none; stroke: #888; stroke-width: 1; opacity: 1;"></line><line transform="translate(0,208)" x2="-5" y2="0" style="fill: none; stroke: #888; stroke-width: 1; opacity: 1;"></line><line transform="translate(0,162)" x2="-5" y2="0" style="fill: none; stroke: #888; stroke-width: 1; opacity: 1;"></line><line transform="translate(0,115)" x2="-5" y2="0" style="fill: none; stroke: #888; stroke-width: 1; opacity: 1;"></line><line transform="translate(0,69)" x2="-5" y2="0" style="fill: none; stroke: #888; stroke-width: 1; opacity: 1;"></line><line transform="translate(0,23)" x2="-5" y2="0" style="fill: none; stroke: #888; stroke-width: 1; opacity: 1;"></line></g><g class="mark-text role-axis-label" style="pointer-events: none;"><text text-anchor="end" transform="translate(-7,305)" style="font-family: sans-serif; font-size: 18px; fill: #000; opacity: 1;">0</text><text text-anchor="end" transform="translate(-7,258.8461538461538)" style="font-family: sans-serif; font-size: 18px; fill: #000; opacity: 1;">20</text><text text-anchor="end" transform="translate(-7,212.69230769230768)" style="font-family: sans-serif; font-size: 18px; fill: #000; opacity: 1;">40</text><text text-anchor="end" transform="translate(-7,166.53846153846152)" style="font-family: sans-serif; font-size: 18px; fill: #000; opacity: 1;">60</text><text text-anchor="end" transform="translate(-7,120.38461538461539)" style="font-family: sans-serif; font-size: 18px; fill: #000; opacity: 1;">80</text><text text-anchor="end" transform="translate(-7,74.23076923076923)" style="font-family: sans-serif; font-size: 18px; fill: #000; opacity: 1;">100</text><text text-anchor="end" transform="translate(-7,28.076923076923038)" style="font-family: sans-serif; font-size: 18px; fill: #000; opacity: 1;">120</text></g><g class="mark-rule role-axis-domain" style="pointer-events: none;"><line transform="translate(0,300)" x2="0" y2="-300" style="fill: none; stroke: #888; stroke-width: 1; opacity: 1;"></line></g><g class="mark-text role-axis-title" style="pointer-events: none;"><text text-anchor="middle" transform="translate(-55,150) rotate(-90) translate(0,-4)" style="font-family: sans-serif; font-size: 18px; font-weight: bold; fill: #000; opacity: 1;">regions</text></g></g></g></g></g></g></g></g></svg>