<svg xmlns="http://www.w3.org/2000/svg" width="802" height="448" version="1.1">
    <path fill="#ef5ba1" d="M6.093316724512261 53.395791411667595 L636.5406713712676 53.53964502605376 L637.08538850002 141.00859741358 L192.1891141920205 138.34569993796248 L132.74546566276513 165.35096877573596 L128.6146030146716 136.62002298401785 L2.7106466209326303 137.00407681281067 L5.775712982661207 52.31729007959311"/>
    <path fill="none" stroke="#000" stroke-width="2" d="M3.015554322092794 53.70946712981167 M5.52161571480603 52.97280720892537 C179.31851049094078 51.12286381517953, 354.54599807397864 51.217600231637995, 633.8833269452039 51.858412038865495 M4.5985899572574995 52.53733013285615 C150.9079476160331 50.44391721989256, 296.9478858481844 50.919926011558374, 634.4273896225217 52.3000613211852 M632.2493705585046 52.109761365172744 C637.5184441350657 77.3225212781952, 637.0581327778559 97.42872729394838, 637.0550171623705 137.94063434955936 M634.1137495783885 53.650883806726775 C632.7972793185393 83.84647910091297, 633.6510912289134 112.26460558302497, 635.0071801215937 139.12379255607812 M633.3123081641818 140.0143178259779 C545.7899929906954 141.20013009726742, 458.0805407753694 141.21659205998768, 194.38517820351908 138.08552034502029 M633.8360687100112 139.4858014398848 C500.607643426693 141.33038474477874, 366.8161775442777 140.2790767895765, 193.30557488390696 139.04399432974287 M191.96202989070736 139.69838475220894 C170.73666526779567 146.56752292441382, 149.98346873901033 156.66985599787617, 131.7776936372 170.37258057404105 M193.25233865704757 138.50668262098856 C169.53526993974813 149.6509777448877, 142.6285911483502 161.24476598085332, 131.58701961761471 168.61508956840552 M128.54617107847588 165.56127945579846 C131.03133235786578 163.47056606144127, 133.35464510069494 154.5841877561074, 133.0883788552397 139.90839969398365 M129.88380291134163 167.80009066124111 C130.61217702669302 158.45575849412148, 131.1681464527547 145.79439112757797, 130.96260711801733 137.90940565423307 M129.10626064750105 138.1597155685413 C99.59568167178513 137.33800805319154, 64.6502822933642 140.21472155801135, 5.630273718462559 139.94439259645367 M130.69087158992315 138.53327592205622 C91.14451881386304 138.36377157668966, 53.34630978845561 138.5197083337366, 5.332553465246747 139.43331070033273 M2.667875354204898 140.55357027621503 C6.454905925750744 111.31929634336556, 3.778716110533741 87.36839179103698, 7.134020518468605 53.30980187245295 M3.1452343445995212 138.47942001907685 C2.855969086532161 119.70315779320157, 3.125650343356494 98.23990296730551, 4.182132831062336 52.484665537912406 M4.5 52.8 C4.5 52.8, 4.5 52.8, 4.5 52.8 M4.5 52.8 C4.5 52.8, 4.5 52.8, 4.5 52.8"/>
    <path fill="#6a2469" d="M110.82953327340074 239.34546006431773 L743.6001190963565 238.1864316412757 L740.9903242047251 356.29641498832353 L615.9751719882493 355.4656906732373 L619.233283195972 393.36598240311434 L551.7264339063025 355.7974290342754 L111.12451723430277 351.46049949847077 L113.6419955301346 236.87604361196574"/>
    <path fill="none" stroke="#000" stroke-width="2" d="M115.03810603195743 241.01679721724832 M112.75985700236036 237.91921021606686 C254.31418123604234 238.50596772942492, 394.78434846743824 239.92407786324247, 741.8625177924841 239.49563591819796 M112.33673359070715 238.17438744023792 C289.55220288823 236.92256711594945, 467.84329396113594 237.0029541390329, 742.3100648383764 238.06194645241808 M745.1545722187511 237.22012255451355 C741.3444513600352 268.2799602199024, 740.6412230131438 298.60881961961616, 743.4950318681967 353.98332931954286 M743.3741923674281 239.2046383906145 C742.4876230538446 262.5760714153627, 742.6676736952357 287.79971610428055, 742.7544129207469 352.56006715173936 M741.234125254587 352.8017881435012 C696.096455844791 354.71733071362956, 655.8969084793237 351.7891226096193, 614.4727964764782 356.27468602286865 M742.4726052872029 352.9824105448119 C695.7721405366055 354.80041882953304, 650.6514848323262 353.38657013271467, 616.6054360784772 354.21964555096116 M617.1364130989707 354.19524401553775 C617.9325341192487 367.26613720411524, 613.89261130992 378.2723239847664, 616.1424450524377 390.3314885855912 M616.0316533012968 352.9885253981935 C616.0392837712221 363.72793335456174, 615.6031604849395 371.27223617755834, 617.1229187384466 391.4456454529301 M617.018457899012 393.80749788443245 C594.7519027080275 380.08899270475433, 574.7498202944056 366.65448347332136, 551.8430869964293 353.2109349088962 M617.4333072887235 392.4513956575644 C598.41441893526 380.62513739656777, 580.1289629302136 370.00162909380634, 554.5142940977029 352.4412910788211 M553.0540754022621 353.68226886846213 C424.8310132601296 351.01039895988214, 297.31715929649334 350.9853199771217, 113.84310977326201 352.94048771701574 M553.5362233443894 353.06792409768224 C403.6810404224056 352.6542297304453, 254.68410812235237 352.3064776338405, 111.90149548225182 353.1495884701952 M113.68258470706932 353.54354090879133 C110.7483932371555 313.7404508314387, 109.75580902783385 275.0449484654979, 115.09509884437429 236.32809058621135 M111.72886234792604 354.8190239663822 C111.7860700668626 315.0316630766588, 111.62223806468546 275.23612999051403, 111.28433440945591 237.2714747810198 M112.5 238.4 C112.5 238.4, 112.5 238.4, 112.5 238.4 M112.5 238.4 C112.5 238.4, 112.5 238.4, 112.5 238.4"/>
    <defs xmlns="http://www.w3.org/2000/svg">
        <marker id="iPointer-1ia80hc1gcjj" fill="#000" markerHeight="7" markerUnits="strokeWidth" markerWidth="8" orient="auto" refX="5" refY="5" viewBox="0 0 10 10">
            <path d="M 10 0 L 10 10 L 0 5 z"/>
        </marker>
        <marker id="Pointer-1ia80hc1gcjj" fill="#000" markerHeight="7" markerUnits="strokeWidth" markerWidth="8" orient="auto" refX="5" refY="5" viewBox="0 0 10 10">
            <path d="M 0 0 L 10 5 L 0 10 z"/>
        </marker>
        <filter id="dsFilterNoBlur" width="150%" height="150%">
            <feOffset dx="3" dy="3" in="SourceGraphic" result="offOut"/>
            <feColorMatrix in="offOut" result="matrixOut" type="matrix" values="0.2 0 0 0 0 0 0.2 0 0 0 0 0 0.2 0 0 0 0 0 1 0"/>
            <feBlend in="SourceGraphic" in2="matrixOut" mode="normal"/>
        </filter>
        <filter id="dsFilter" width="150%" height="150%">
            <feOffset dx="3" dy="3" in="SourceGraphic" result="offOut"/>
            <feColorMatrix in="offOut" result="matrixOut" type="matrix" values="0.2 0 0 0 0 0 0.2 0 0 0 0 0 0.2 0 0 0 0 0 1 0"/>
            <feGaussianBlur in="matrixOut" result="blurOut" stdDeviation="3"/>
            <feBlend in="SourceGraphic" in2="blurOut" mode="normal"/>
        </filter>
    </defs>
    ??
    <text id="text0" x="26.1" y="92.8" fill="#fff" stroke="none" font-family="xkcd Script" font-size="120%">
        Can the PostgreSQL operator match the availability and durability
    </text>
    <text id="text1" x="26.1" y="108.8" fill="#fff" stroke="none" font-family="xkcd Script" font-size="120%">
        guarantees of RDS?
    </text>
    <text id="text2" x="134.1" y="268.8" fill="#fff" stroke="none" font-family="xkcd Script" font-size="120%">
        Not today, no. It is worth considering, though, that:
    </text>
    <text id="text3" x="134.1" y="300.8" fill="#fff" stroke="none" font-family="xkcd Script" font-size="120%">
        *
    </text>
    <text id="text4" x="152.1" y="300.8" fill="#fff" stroke="none" font-family="xkcd Script" font-size="120%">
        RDS and the operator use the same AWS storage primitives
    </text>
    <text id="text5" x="134.1" y="332.8" fill="#fff" stroke="none" font-family="xkcd Script" font-size="120%">
        *
    </text>
    <text id="text6" x="152.1" y="332.8" fill="#fff" stroke="none" font-family="xkcd Script" font-size="120%">
        If this is an issue, the operator could easily manage RDS on AWS
    </text>
</svg>
