<svg xmlns="http://www.w3.org/2000/svg" width="487" height="480" version="1.1">
    <path fill="#ef5ba1" d="M6.093316724512261 34.5957914116676 L9.040671371267672 27.23964502605377 L17.085388500020052 25.808597413579992 L471.1891141920205 23.14569993796249 L474.7454656627651 85.35096877573596 L2.614603014671593 85.42002298401785 L2.7106466209326303 31.80407681281067"/>
    <path fill="none" stroke="#000" stroke-width="2" d="M5.775712982661207 33.51729007959311 M4.5 34 C3.85730170811089 29.69378289187419, 8.461229722069886 26.554039287015076, 13.015554322092793 24.909467129811674 M4.932018022313423 34.69805514611435 C2.2251553341574257 25.56039830079449, 5.126267945071644 21.81047807428349, 11.952788136839317 26.781335975842012 M13.88280513851183 24.579012759041387 C112.08404474085917 23.76282093265571, 212.05763415485274 23.29889386912145, 471.32529508626624 23.655228533865255 M14.337814766022367 24.5063200953135 C184.80322371450455 26.820201997591845, 354.0687467150562 27.022393041458432, 472.20408710498907 24.34291629824734 M474.20176761345357 22.95619890505477 C473.4698869347776 37.616097149145936, 469.459521003245 50.91890908987323, 472.34758511215625 85.22245578113052 M473.3171366204639 23.84313040615016 C473.6187123273048 45.90475141843344, 473.63523127378284 67.31718698566401, 471.38166252807713 88.05857883884892 M473.01997641439465 88.46007465191573 C318.9934925673081 86.27714592467058, 162.76063750369255 84.81971012399046, 4.216169137992332 88.67025790801468 M472.6129518270247 87.93958109408196 C362.9054278115294 86.64236403981243, 253.79006490942567 86.65831459669418, 5.037711696462254 88.59391655412348 M3.113365241977135 89.70585921732727 C1.5431883054977957 69.57118978041798, 2.0598636177091687 58.34622295322842, 5.730179136811057 31.322592586374594 M3.2806397278992336 88.1647855319352 C4.80850861348139 75.82860209078791, 3.3083670766642532 62.29850980249611, 4.854199846991833 34.89570097552278"/>
    <path fill="#f99c41" d="M7.010426895282944 89.98199803669559 L471.26760582268327 87.60018132248224 L473.4473569992275 153.87668671610808 L6.559295851350907 149.51912171088625 L5.4252142360346625 85.41881130846613"/>
    <path fill="none" stroke="#000" stroke-width="2" d="M3.130790423307917 90.0316452777187 M4.832809494429278 87.86117553782574 C102.45971271493642 90.26849152046057, 203.26392297567435 89.44079547278628, 472.61848445349824 89.094148211849 M4.328124594731855 87.59324822171864 C146.88420727057462 89.0782591042628, 288.92155451564105 89.52008229361562, 472.5277897073716 87.9992595500402 M474.45349452303924 86.41766153117933 C471.19102482116784 109.88209616555105, 474.5477406318142 130.74374987022603, 470.80357504816277 154.70263720902585 M472.02350836083133 89.1884750846752 C471.42613959819937 113.60126438760562, 471.31508281160603 138.0661192126181, 473.4089759922084 151.4430778192691 M473.68002635682313 152.47318120140204 C323.4629926591411 152.88593094360587, 171.92587254236665 151.2614793659173, 5.059746184877087 152.3567912241383 M471.8658134926873 151.98753800559174 C288.19850866217206 152.67758950144938, 104.48507587079658 153.32586675468335, 4.121412437043795 152.2142750980447 M7.1964149883235216 151.47517198824926 C6.434032548029034 133.01872526144288, 5.9343242779060965 106.79731803724427, 6.697429034275411 86.62451723430277 M5.769053015978716 153.30839860862415 C3.0674923921975426 137.14917334134154, 3.771980238347547 123.70539497422705, 3.89901277008355 89.04035994151855"/>
    <path fill="#fff" d="M2.4806578139032354 152.80140475445805 L474.02593314844705 150.40629448121035 L475.23908979549486 205.4898931672862 L469.64542825458483 214.95410810303147 L461.68366795353575 214.87193720118958 L2.14803312145159 217.77371662884542 L5.990507166282623 154.17565174426272"/>
    <path fill="none" stroke="#000" stroke-width="2" d="M3.5503241918821002 150.3097322620904 M5.703242196908874 151.46519506248043 C130.72069880221676 154.07189447570192, 256.8347020907101 153.7124274567395, 472.95101968694854 152.1737522939961 M4.896246573091912 152.36471973073526 C106.02399062004662 151.73804532349033, 207.437312108132 151.86516743885136, 472.6153181516476 151.52862797397634 M471.23412525458696 151.2017881435012 C469.7182239054107 172.23993315647823, 473.68264881699935 188.2391417426348, 470.4727964764781 208.67468602286863 M472.4726052872029 151.38241054481188 C472.8058463151955 172.59181250197085, 473.980194556986 191.01867978203956, 472.6054360784772 206.61964555096114 M472.5 206 C474.96193220578135 213.3030797656373, 469.7619106822044 217.75063871641032, 462.41559669798806 214.34320522311629 M474.7618903040173 203.7107159070816 C470.5812118734299 210.97798602432647, 470.18458062988043 218.88829328416276, 464.64340471225614 215.58881181030335 M463.0843827555984 214.9973491914553 C339.1620926288108 215.22807635438386, 217.82222912121722 215.10247199468623, 3.9524611502677907 215.3419670660874 M462.82710059943184 216.05395734821994 C316.8120941469736 214.6743697137447, 170.6476016142497 214.9700763259624, 3.8687537567925916 216.34700061327234 M2.767074682418388 214.24048267823963 C3.1783412718594777 194.56204058981257, 1.893688936800987 168.77188778497074, 3.6000933793235164 150.2892659848716 M3.7875192015642822 215.12109179369654 C3.7095190737472152 200.19332784379367, 3.7853704551219565 182.22918747359435, 5.418688103897876 151.2685841570088"/>
    <path fill="#f99c41" d="M4.64539493191478 287.4643291806704 L470.21053768217973 292.25491136696365 L471.2205663987963 415.65908794807837 L142.49769493746354 412.5921174089948 L99.34746769108023 456.9565573802146 L96.68604334855809 415.5825847070693 L4.443540908791329 413.1993702881591 L4.332889331883052 287.4067860788375"/>
    <path fill="none" stroke="#000" stroke-width="2" d="M5.329825466386683 292.19509884437434 M3.663605421623722 288.9009304052484 C111.37461197117871 289.1348601138575, 216.23144098036062 288.9863393263414, 471.77231928899397 288.4979466254183 M4.464140792746883 289.6617623273959 C107.5656616997462 289.511510777736, 209.241549560377 289.18961753302466, 472.4893530308441 290.0167701295251 M473.96643014579206 288.2381814830544 C475.03017125120783 337.4259748859599, 475.85338947558955 386.25246842801977, 471.71675427445945 413.65505262467883 M471.46972653719274 290.3385106867958 C472.1346531474797 318.8955788117162, 471.403139331579 349.3588582727306, 472.4914770615163 414.80732770894434 M471.05496051552177 414.88968318183987 C403.9029739225938 414.2537058856949, 335.3368110171084 413.06173459253176, 145.54900941690605 415.694996857026 M472.225132574051 413.5835941630624 C366.298733818426 413.0360702952814, 259.81558438680554 412.85018952070385, 144.254573754043 414.84005462687617 M142.1024937968992 416.6592604928559 C127.41355263308887 429.8916204039844, 115.05038307176723 439.8984421829422, 97.10021635862358 454.1777760007564 M144.29840879411788 413.40766754305776 C134.01393265173922 422.25550098047177, 124.40464528395863 430.0576725795785, 99.24724084430562 454.70268570747174 M100.83215499383658 458.72870704219895 C96.5383155144089 438.91059173775454, 95.07742478889922 424.5800825590879, 97.60526139978919 411.80479156232974 M97.14598030764463 457.2987206876889 C98.7224506629572 439.4787273516853, 96.87213120476692 423.49465144992644, 97.48774448085014 413.5024190106276 M96.70153358053939 414.6298803575255 C61.29018097872831 413.6515264075376, 26.460092369433553 412.2210803855788, 5.076786057547179 413.3314493989295 M98.41415199601033 415.0954133190844 C65.79432171403404 414.12428794481065, 34.81621458787777 413.42448352060825, 4.472575512182812 415.66225763430407 M4.197343666239976 412.279622965843 C3.0240662157342197 373.0181845586041, 1.223788321849443 328.67435258342084, 4.14262244993879 291.9255727467695 M5.561291148315649 413.70358864840017 C4.146009016121761 387.66127912093407, 3.7736880401233157 358.63067700908806, 3.5796787227754976 288.4702321410514 M4.5 289.6 C4.5 289.6, 4.5 289.6, 4.5 289.6 M4.5 289.6 C4.5 289.6, 4.5 289.6, 4.5 289.6"/>
    <defs xmlns="http://www.w3.org/2000/svg">
        <marker id="iPointer-76fvqpsf9hc" fill="#000" markerHeight="7" markerUnits="strokeWidth" markerWidth="8" orient="auto" refX="5" refY="5" viewBox="0 0 10 10">
            <path d="M 10 0 L 10 10 L 0 5 z"/>
        </marker>
        <marker id="Pointer-76fvqpsf9hc" fill="#000" markerHeight="7" markerUnits="strokeWidth" markerWidth="8" orient="auto" refX="5" refY="5" viewBox="0 0 10 10">
            <path d="M 0 0 L 10 5 L 0 10 z"/>
        </marker>
        <filter id="dsFilterNoBlur" width="150%" height="150%">
            <feOffset dx="3" dy="3" in="SourceGraphic" result="offOut"/>
            <feColorMatrix in="offOut" result="matrixOut" type="matrix" values="0.2 0 0 0 0 0 0.2 0 0 0 0 0 0.2 0 0 0 0 0 1 0"/>
            <feBlend in="SourceGraphic" in2="matrixOut" mode="normal"/>
        </filter>
        <filter id="dsFilter" width="150%" height="150%">
            <feOffset dx="3" dy="3" in="SourceGraphic" result="offOut"/>
            <feColorMatrix in="offOut" result="matrixOut" type="matrix" values="0.2 0 0 0 0 0 0.2 0 0 0 0 0 0.2 0 0 0 0 0 1 0"/>
            <feGaussianBlur in="matrixOut" result="blurOut" stdDeviation="3"/>
            <feBlend in="SourceGraphic" in2="blurOut" mode="normal"/>
        </filter>
    </defs>
    ??
    <text id="text0" x="17.1" y="60.8" fill="#fff" stroke="none" font-family="xkcd Script" font-size="120%">
        open source - Apache
    </text>
    <text id="text1" x="17.1" y="124.8" fill="#fff" stroke="none" font-family="xkcd Script" font-size="120%">
        neutral IP ownership - CNCF
    </text>
    <text id="text2" x="17.1" y="188.8" fill="#000" stroke="none" font-family="xkcd Script" font-size="120%">
        extensibility
    </text>
    <text id="text3" x="17.1" y="316.8" fill="#fff" stroke="none" font-family="xkcd Script" font-size="120%">
        K8s would *not* be what it is today without
    </text>
    <text id="text4" x="17.1" y="332.8" fill="#fff" stroke="none" font-family="xkcd Script" font-size="120%">
        neutral IP ownership... K8s has spawned an entire
    </text>
    <text id="text5" x="17.1" y="348.8" fill="#fff" stroke="none" font-family="xkcd Script" font-size="120%">
        ecosystem *because* it can be used by consuming
    </text>
    <text id="text6" x="17.1" y="364.8" fill="#fff" stroke="none" font-family="xkcd Script" font-size="120%">
        projects/products without fear.
    </text>
    <text id="text7" x="269.1" y="396.8" fill="#fff" stroke="none" font-family="xkcd Script" font-size="120%">
        -
    </text>
    <text id="text8" x="287.1" y="396.8" fill="#fff" stroke="none" font-family="xkcd Script" font-size="120%">
        Matt Klein
    </text>
</svg>
