<svg xmlns="http://www.w3.org/2000/svg" width="586" height="272" version="1.1">
    <path fill="#fff" d="M169.27965892451226 31.733289011667598 L193.53348564958802 21.56644240105383 L218.14255110783256 15.607289613580082 L238.94504895979392 8.973616062962586 L268.2111440002651 6.040171975736046 L320.03887303810916 11.426925984017881 L384.6559649209326 25.75374081281067 L407.3171910679639 24.45547391318686 L442.9824488190166 24.129421436842925 L462.12257239248584 26.67562850854086 L496.83405431412723 32.47328134326507 L529.784685610027 43.001830451876074 L540.8171788902033 54.428012616221324 L547.0338267103047 57.67985787629095 L550.2543242521137 69.00063437847427 L548.6800532498049 80.56604161103358 L542.5541621392659 90.544231043187 L532.5109347785198 97.76370730617167 L546.7988361986896 107.54741560512572 L560.9635446446429 117.23691095319164 L567.9621082712316 134.07886980032876 L567.3034706810464 142.16484210498902 L565.5819679026515 154.54990408486435 L558.4148475307165 165.33259755851384 L546.6086110082927 172.9941118779955 L526.9343822284412 183.18599561146513 L500.13064590340093 188.10387069283803 L488.5461733089255 192.41269268845355 L460.83565080505474 190.9684449060694 L469.3848526788487 193.67764783879466 L469.5067631820058 203.57807215121875 L459.14774544715226 211.9574551509276 L450.8866693934077 215.58255785305602 L413.1444936241797 228.0160387169878 L379.5842521909438 232.4438911868677 L341.84982224415387 230.8158939041421 L318.1035408229511 225.98098034019785 L280.1616981774193 215.95823285846137 L237.46420607846815 224.45861012185813 L196.5302166334891 231.6760056295971 L169.7926139361187 228.89097284058076 L135.4641895714455 228.62899551548134 L103.21201487586136 217.5066367616681 L77.44838635555266 202.37739679539487 L67.10297205220895 185.47095849997663 L30.169915649521503 179.1022990867524 L18.823639743080015 173.4690559700125 L15.56960575529106 168.17564105264154 L8.270123084048873 159.49760549308513 L5.76515614012056 144.75502320818805 L10.771442442327267 130.91594331286515 L10.595398680793489 123.00790198601403 L34.01147291647943 103.11821183681106 L43.643177478562095 88.65987456530986 L60.50946003366311 80.98263827847589 L37.23099205050978 73.14664185371414 L31.54721729770629 65.45319611294953 L27.723484178274287 55.81598522477095 L36.5725890805071 46.23176955104553 L56.117184157782944 36.51798443669555 L92.01629661533461 24.8061665787322 L139.9771153224697 26.81239291610806 L169.7456380513509 28.65661931088625"/>
    <path fill="none" stroke="#000" stroke-width="2" d="M168.61155643603468 28.55630890846614 M167.6863422 31.1374976 C228.69174517859864 -2.32847215249874, 292.3298292685413 5.14445937667076, 385.0761087233079 29.981309277718687 M167.38007006167442 28.56489370313547 C232.01719318592174 -0.6341246844174898, 296.1460882892448 4.521826195207789, 389.4013258714683 29.24947877623194 M386.4453183 27.949664 C490.1736444801092 6.0032368594995, 601.2100469816776 53.0189983735934, 531.6605775798464 99.13500624411247 M388.1104252304935 28.416285400665462 C491.89649914318977 5.691031057335634, 601.1688627176474 56.74838110149515, 531.4198455000881 100.46469719370786 M531.2788344 100.4684544 C622.3446600666645 141.1891501184686, 534.673475572453 199.38646784816274, 460.2971134311793 188.99941030782225 M533.9814716090259 103.08939739134188 C620.483607129912 141.28862229475294, 533.688009820608 202.02712916558139, 458.7634908925789 188.06477164387678 M461.8794519 189.7221056 C501.4594904844169 210.88076043853818, 390.009665099828 252.3000489189929, 278.6931346621247 213.79559027582482 M462.0035673344505 192.32545943205818 C501.55524829993885 208.78021185570165, 387.2483287318126 256.1987873553958, 280.5293818528069 215.99059354105748 M279.328869 214.4262592 C130.70040012801022 253.20143007886054, 79.73499889255184 218.70818112498614, 67.39173395586441 188.34696077333962 M278.06236975693304 214.3488137031819 C128.81981226441084 253.6333206739654, 83.79839856080999 218.51756438746708, 66.67557771444919 188.93798814264633 M66.6045873 185.7375488 C-47.924549311750745 174.04915627323726, 32.393114395972034 95.66823200311431, 57.63007300472504 85.63288218832352 M64.83102120630257 187.93497783427543 C-46.08642644034522 170.4309157537606, 32.57865313675104 97.31156639983556, 57.55794361944818 80.47604162324136 M59.1397488 82.9364672 C-30.156200084018767 47.82820570590092, 95.5717189401671 8.97346548303699, 165.55220412368124 30.055270561406445 M57.120406613903235 83.73787195445804 C-26.281084435180894 46.59194034237914, 96.36593589277257 8.564969918486087, 169.44116532071416 29.304736253391905 M167.6863422 31.1374976 C167.6863422 31.1374976, 167.6863422 31.1374976, 167.6863422 31.1374976 M167.6863422 31.1374976 C167.6863422 31.1374976, 167.6863422 31.1374976, 167.6863422 31.1374976"/>
    <defs xmlns="http://www.w3.org/2000/svg">
        <marker id="iPointer-t8mjj4gi24" fill="#000" markerHeight="7" markerUnits="strokeWidth" markerWidth="8" orient="auto" refX="5" refY="5" viewBox="0 0 10 10">
            <path d="M 10 0 L 10 10 L 0 5 z"/>
        </marker>
        <marker id="Pointer-t8mjj4gi24" fill="#000" markerHeight="7" markerUnits="strokeWidth" markerWidth="8" orient="auto" refX="5" refY="5" viewBox="0 0 10 10">
            <path d="M 0 0 L 10 5 L 0 10 z"/>
        </marker>
        <filter id="dsFilterNoBlur" width="150%" height="150%">
            <feOffset dx="3" dy="3" in="SourceGraphic" result="offOut"/>
            <feColorMatrix in="offOut" result="matrixOut" type="matrix" values="0.2 0 0 0 0 0 0.2 0 0 0 0 0 0.2 0 0 0 0 0 1 0"/>
            <feBlend in="SourceGraphic" in2="matrixOut" mode="normal"/>
        </filter>
        <filter id="dsFilter" width="150%" height="150%">
            <feOffset dx="3" dy="3" in="SourceGraphic" result="offOut"/>
            <feColorMatrix in="offOut" result="matrixOut" type="matrix" values="0.2 0 0 0 0 0 0.2 0 0 0 0 0 0.2 0 0 0 0 0 1 0"/>
            <feGaussianBlur in="matrixOut" result="blurOut" stdDeviation="3"/>
            <feBlend in="SourceGraphic" in2="blurOut" mode="normal"/>
        </filter>
    </defs>
    ??
    <text id="text0" x="269.1" y="44.8" fill="#000" stroke="none" font-family="xkcd Script" font-size="120%">
        Fleet
    </text>
    <text id="text1" x="107.1" y="60.8" fill="#000" stroke="none" font-family="xkcd Script" font-size="120%">
        Docker Swarm
    </text>
    <text id="text2" x="305.1" y="76.8" fill="#000" stroke="none" font-family="xkcd Script" font-size="120%">
        OpenShift (1-2)
    </text>
    <text id="text3" x="206.1" y="92.8" fill="#000" stroke="none" font-family="xkcd Script" font-size="120%">
        Kubernetes
    </text>
    <text id="text4" x="53.1" y="108.8" fill="#000" stroke="none" font-family="xkcd Script" font-size="120%">
        Apache Mesos
    </text>
    <text id="text5" x="269.1" y="124.8" fill="#000" stroke="none" font-family="xkcd Script" font-size="120%">
        Elastic Container Service
    </text>
    <text id="text6" x="116.1" y="140.8" fill="#000" stroke="none" font-family="xkcd Script" font-size="120%">
        Heroku
    </text>
    <text id="text7" x="188.1" y="156.8" fill="#000" stroke="none" font-family="xkcd Script" font-size="120%">
        Cloud Foundry
    </text>
    <text id="text8" x="323.1" y="172.8" fill="#000" stroke="none" font-family="xkcd Script" font-size="120%">
        Panamax
    </text>
    <text id="text9" x="98.1" y="188.8" fill="#000" stroke="none" font-family="xkcd Script" font-size="120%">
        Shipyard
    </text>
    <text id="text10" x="359.1" y="204.8" fill="#000" stroke="none" font-family="xkcd Script" font-size="120%">
        Portainer
    </text>
</svg>
