<svg xmlns="http://www.w3.org/2000/svg" width="613" height="256" version="1.1">
    <path fill="#ef5ba1" d="M6.093316724512261 50.1957914116676 L600.5406713712676 50.339645026053766 L601.08538850002 176.20859741358 L181.3891141920205 173.5456999379625 L125.54546566276512 213.35096877573596 L121.41460301467158 171.82002298401787 L2.7106466209326303 172.20407681281068 L5.775712982661207 49.11729007959311"/>
    <path fill="none" stroke="#000" stroke-width="2" d="M3.015554322092794 50.509467129811675 M5.52161571480603 49.77280720892537 C169.34483686622676 47.968072355168566, 334.5986508245506 48.06280877162703, 597.8833269452039 48.6584120388655 M4.5985899572574995 49.33733013285615 C142.55586032801432 47.347639126254954, 280.2437112721468 47.823647917920766, 598.4273896225217 49.1000613211852 M596.2493705585046 48.90976136517275 C601.9022724103288 84.63637189374131, 601.441961053119 115.25642852504062, 601.0550171623705 173.14063434955938 M598.1137495783885 50.45088380672678 C596.2724703701 94.16794996663667, 597.1262822804741 136.10754731447233, 599.0071801215937 174.32379255607813 M597.2121886965684 175.28296279325497 C514.8370250936658 176.4914531225148, 432.2589492617625 176.50930278774652, 183.6597965243718 173.19157248215095 M597.7801009536616 174.70989379039312 C472.2944022261319 176.60568162206616, 346.1981999774524 175.46575102115884, 182.48918533021393 174.23084343977314 M181.16202989070734 174.89838475220895 C161.08694368820306 186.31895465299576, 141.60386720387837 200.93727010676258, 124.57769363719999 218.37258057404105 M182.45233865704756 173.70668262098857 C160.14270725090975 189.86519845988988, 134.65295978199433 206.49696473134873, 124.38701961761471 216.61508956840552 M121.34617107847589 213.56127945579846 C123.92100404408593 208.85452373624148, 126.24431678691508 197.35210310570778, 125.88837885523971 175.10839969398367 M122.68380291134163 215.80009066124111 C123.25150970539488 201.79683188792924, 123.80747913145659 184.47653791519346, 123.76260711801733 173.1094056542331 M121.90626064750104 173.3597155685413 C94.20359920920717 172.626906327962, 61.06611736820828 175.5036198327818, 5.630273718462559 175.14439259645368 M123.49087158992315 173.73327592205624 C86.17173553535969 173.56027784257884, 50.60074323144893 173.71621459962577, 5.332553465246747 174.63331070033274 M2.667875354204898 175.75357027621504 C6.455533215844737 134.83113403767058, 3.779343400627733 99.19206717964698, 7.134020518468605 50.109801872452955 M3.1452343445995212 173.67942001907687 C2.3370627423991968 145.70968344143552, 2.60674399922353 115.05295426377342, 4.182132831062336 49.28466553791241 M4.5 49.6 C4.5 49.6, 4.5 49.6, 4.5 49.6 M4.5 49.6 C4.5 49.6, 4.5 49.6, 4.5 49.6"/>
    <defs xmlns="http://www.w3.org/2000/svg">
        <marker id="iPointer-79emj0ou077" fill="#000" markerHeight="7" markerUnits="strokeWidth" markerWidth="8" orient="auto" refX="5" refY="5" viewBox="0 0 10 10">
            <path d="M 10 0 L 10 10 L 0 5 z"/>
        </marker>
        <marker id="Pointer-79emj0ou077" fill="#000" markerHeight="7" markerUnits="strokeWidth" markerWidth="8" orient="auto" refX="5" refY="5" viewBox="0 0 10 10">
            <path d="M 0 0 L 10 5 L 0 10 z"/>
        </marker>
        <filter id="dsFilterNoBlur" width="150%" height="150%">
            <feOffset dx="3" dy="3" in="SourceGraphic" result="offOut"/>
            <feColorMatrix in="offOut" result="matrixOut" type="matrix" values="0.2 0 0 0 0 0 0.2 0 0 0 0 0 0.2 0 0 0 0 0 1 0"/>
            <feBlend in="SourceGraphic" in2="matrixOut" mode="normal"/>
        </filter>
        <filter id="dsFilter" width="150%" height="150%">
            <feOffset dx="3" dy="3" in="SourceGraphic" result="offOut"/>
            <feColorMatrix in="offOut" result="matrixOut" type="matrix" values="0.2 0 0 0 0 0 0.2 0 0 0 0 0 0.2 0 0 0 0 0 1 0"/>
            <feGaussianBlur in="matrixOut" result="blurOut" stdDeviation="3"/>
            <feBlend in="SourceGraphic" in2="blurOut" mode="normal"/>
        </filter>
    </defs>
    ??
    <text id="text0" x="26.1" y="92.8" fill="#fff" stroke="none" font-family="xkcd Script" font-size="120%">
        Declarative configuration is about treating infrastructure as
    </text>
    <text id="text1" x="26.1" y="108.8" fill="#fff" stroke="none" font-family="xkcd Script" font-size="120%">
        data, which is more portable than code, and enables workflows
    </text>
    <text id="text2" x="26.1" y="124.8" fill="#fff" stroke="none" font-family="xkcd Script" font-size="120%">
        that manipulate desired state based on policy.
    </text>
    <text id="text3" x="296.1" y="156.8" fill="#fff" stroke="none" font-family="xkcd Script" font-size="120%">
        -
    </text>
    <text id="text4" x="314.1" y="156.8" fill="#fff" stroke="none" font-family="xkcd Script" font-size="120%">
        Kelsey Hightower (2019)
    </text>
</svg>
